<?xml version="1.0" encoding="UTF-8"?>
<svg version="1.1" xmlns="http://www.w3.org/2000/svg" width="1024" height="1024">
<path d="M0 0 C337.92 0 675.84 0 1024 0 C1024 337.92 1024 675.84 1024 1024 C686.08 1024 348.16 1024 0 1024 C0 686.08 0 348.16 0 0 Z " fill="#272C31" transform="translate(0,0)"/>
<path d="M0 0 C-0.32983491 12.76461113 -1.97733614 25.11732064 -4.01171875 37.71484375 C-5.25459225 45.45023489 -6.17548051 53.21046062 -7 61 C-10.85550018 57.36364015 -13.86741138 53.58308152 -16.8125 49.1875 C-17.21919922 48.59001953 -17.62589844 47.99253906 -18.04492188 47.37695312 C-19.03479703 45.92125436 -20.01809735 44.46108826 -21 43 C-24.01388073 44.35058114 -26.1034677 45.85604775 -28.42578125 48.1953125 C-29.3684082 49.13987305 -29.3684082 49.13987305 -30.33007812 50.10351562 C-30.98427734 50.77060547 -31.63847656 51.43769531 -32.3125 52.125 C-33.32280273 53.1449707 -33.32280273 53.1449707 -34.35351562 54.18554688 C-38.22655884 58.11881233 -41.96906658 62.12207293 -45.5546875 66.3203125 C-65.92174044 89.99013078 -95.85721081 102.79186408 -125.95703125 108.10546875 C-127.63812321 108.40306813 -129.31911138 108.7012543 -131 109 C-131.91144775 109.16064941 -132.82289551 109.32129883 -133.76196289 109.48681641 C-134.65262451 109.6522998 -135.54328613 109.8177832 -136.4609375 109.98828125 C-137.26450684 110.13434814 -138.06807617 110.28041504 -138.89599609 110.4309082 C-142.43696339 111.38867042 -143.86497259 113.0719624 -146 116 C-149.87409767 122.82567683 -152.40359818 129.79191607 -154.5625 137.3125 C-155.16384534 139.35162655 -155.76540616 141.39068958 -156.3671875 143.4296875 C-156.64916992 144.39616211 -156.93115234 145.36263672 -157.22167969 146.35839844 C-158.1668763 149.5663744 -159.17317934 152.75077604 -160.1875 155.9375 C-161.41460695 159.88920034 -162.4744819 163.85314939 -163.44189453 167.87646484 C-166.51011157 180.63601569 -170.20153129 192.25739029 -178 203 C-178.46019531 203.65613281 -178.92039062 204.31226563 -179.39453125 204.98828125 C-183.55841376 210.40012855 -189.09708047 213.70831432 -195 217 C-195.64710938 217.36480469 -196.29421875 217.72960937 -196.9609375 218.10546875 C-203.97807835 221.36889888 -213.14923666 221.18839965 -220.53515625 219.37890625 C-225.84026821 217.07900222 -229.096214 212.89323108 -232 208 C-239.03405877 186.89782368 -226.32254137 157.46750761 -220.58959961 137.09625244 C-220.04655199 135.16551016 -219.50653219 133.23391694 -218.96679688 131.30224609 C-214.29411393 114.58822787 -214.29411393 114.58822787 -213 112 C-214.30576996 112.01110306 -215.61153992 112.02220612 -216.95687866 112.03364563 C-229.28581615 112.13517456 -241.61466838 112.21003905 -253.94392967 112.25906086 C-260.28197074 112.28511113 -266.61967327 112.32042669 -272.95751953 112.37719727 C-279.07835831 112.43167849 -285.19887223 112.46145489 -291.31993484 112.47438622 C-293.65065242 112.48359707 -295.981353 112.50158372 -298.31193161 112.52865028 C-301.58643221 112.56515345 -304.85960476 112.56993629 -308.13427734 112.56762695 C-309.56711563 112.59459152 -309.56711563 112.59459152 -311.02890015 112.62210083 C-320.4547512 112.55056423 -328.37140528 108.62859472 -335 102 C-340.40585032 95.14857411 -342.34063386 88.23598606 -341.9375 79.5625 C-340.79234353 70.1511566 -336.23101728 62.97853161 -329 57 C-322.66072482 52.51612243 -316.58737323 51.70481345 -309.0451355 51.73930359 C-307.70869891 51.73356527 -307.70869891 51.73356527 -306.3452636 51.72771102 C-303.3653693 51.71740786 -300.38566864 51.72136815 -297.40576172 51.7253418 C-295.26673708 51.72099371 -293.127714 51.71581023 -290.98869324 51.70985413 C-285.18055926 51.69645985 -279.37249034 51.6958862 -273.56434393 51.69841743 C-268.71132259 51.69948736 -263.8583144 51.69460292 -259.00529587 51.689812 C-247.55007006 51.67871422 -236.09487703 51.67828022 -224.63964844 51.68432617 C-212.83703782 51.69035998 -201.0345466 51.6780706 -189.23195636 51.6567561 C-179.0890489 51.63911487 -168.94617934 51.63314293 -158.80325711 51.63639385 C-152.74989714 51.63820364 -146.69662224 51.6356013 -140.64327621 51.62167931 C-134.94527083 51.60906548 -129.24745069 51.61107876 -123.54944801 51.62409019 C-121.4646085 51.6264482 -119.37975581 51.62374928 -117.29493141 51.61546707 C-92.21540144 51.52306571 -92.21540144 51.52306571 -84 57 C-88.93832917 59.25054064 -93.72830398 60.86262068 -99 62.125 C-99.67289063 62.29386719 -100.34578125 62.46273437 -101.0390625 62.63671875 C-108.23376841 64.40067174 -115.40368251 65.18576224 -122.78938293 65.55363464 C-123.61893016 65.59575205 -124.44847738 65.63786946 -125.3031624 65.68126315 C-133.99295817 66.09215402 -142.67205472 66.14506192 -151.36987305 66.1418457 C-153.11336859 66.14488896 -154.85686335 66.14841355 -156.60035706 66.15237427 C-160.30997996 66.16016711 -164.01959369 66.16537081 -167.72922325 66.16866493 C-173.60123413 66.17464847 -179.47318677 66.19125038 -185.34516907 66.21000671 C-187.366065 66.21634079 -189.38696096 66.22266645 -191.40785694 66.22898388 C-192.41855389 66.23214969 -193.42925084 66.2353155 -194.47057498 66.23857725 C-208.11050079 66.28048456 -221.7503947 66.31368907 -235.39038086 66.32592773 C-244.6377162 66.33430936 -253.88490193 66.35678508 -263.13216239 66.3952834 C-268.01151035 66.41500374 -272.8906349 66.42746106 -277.77002525 66.42244911 C-282.34793941 66.41780159 -286.92542757 66.43161348 -291.50325584 66.45946121 C-293.17856956 66.46636523 -294.85392739 66.46650805 -296.52923965 66.45926094 C-306.29065377 66.42130512 -313.69128373 66.48759117 -321.5 73.125 C-323.73820658 77.41489595 -323.7439933 81.26273653 -323 86 C-320.60915145 91.05756425 -318.16957356 93.033959 -313 95 C-309.04050043 95.448939 -305.10131582 95.43747846 -301.11962891 95.43237305 C-299.92881714 95.4425647 -298.73800537 95.45275635 -297.5111084 95.46325684 C-294.25943749 95.4882109 -291.00803812 95.50010119 -287.7562871 95.50611091 C-284.35294747 95.51551386 -280.94973748 95.54171872 -277.54647827 95.56611633 C-271.10808103 95.6097324 -264.66970903 95.63830931 -258.23120916 95.66143972 C-250.89860754 95.68851772 -243.56613666 95.73242756 -236.23362851 95.77772844 C-221.15582288 95.87050454 -206.07798341 95.94221738 -191 96 C-191.48213678 97.7680133 -191.96428647 99.53602309 -192.44644165 101.30403137 C-192.71493738 102.2885922 -192.98343311 103.27315302 -193.26006508 104.28754902 C-194.01364314 107.050013 -194.76855194 109.81211184 -195.5234375 112.57421875 C-196.4557254 115.99079392 -197.37803473 119.40972954 -198.2890625 122.83203125 C-200.85573804 132.42314051 -203.57275796 141.95266326 -206.48413086 151.44458008 C-214.23811787 174.26453486 -214.23811787 174.26453486 -215 198 C-213.26557234 201.487428 -213.26557234 201.487428 -210 203 C-203.38185543 203.10674427 -198.24131606 200.99258197 -193.37109375 196.49609375 C-186.16035595 188.70705116 -183.88926539 178.63917681 -181.25 168.625 C-180.55287964 166.0397698 -179.85409798 163.45506257 -179.15234375 160.87109375 C-178.9752739 160.21714127 -178.79820404 159.56318878 -178.61576843 158.88941956 C-175.88404529 148.83958772 -172.87755023 138.86993302 -169.86669922 128.90087891 C-169.08888499 126.29750182 -168.33726117 123.68864879 -167.59765625 121.07421875 C-164.40257811 109.95504753 -160.00801906 100.50352754 -150 94 C-143.72001465 91.22191647 -137.5716887 90.1017336 -130.8125 89.0625 C-101.08046899 84.1126172 -79.20150416 70.81602226 -58 50 C-57.20819336 49.22333984 -56.41638672 48.44667969 -55.60058594 47.64648438 C-53.10199286 45.18767472 -50.61116536 42.72137262 -48.125 40.25 C-47.33319336 39.46302734 -46.54138672 38.67605469 -45.72558594 37.86523438 C-44.62778809 36.76405273 -44.62778809 36.76405273 -43.5078125 35.640625 C-42.52772217 34.65884277 -42.52772217 34.65884277 -41.52783203 33.65722656 C-39.91539678 32.06200872 -39.91539678 32.06200872 -39 30 C-39.98226562 29.85304688 -39.98226562 29.85304688 -40.984375 29.703125 C-48.27823666 28.50808552 -55.05096354 26.49825744 -62 24 C-62 23.34 -62 22.68 -62 22 C-61.30366455 21.75467529 -60.6073291 21.50935059 -59.88989258 21.2565918 C-42.35012821 15.0649935 -24.92278468 8.63058056 -7.55834961 1.96459961 C-2.34776006 0 -2.34776006 0 0 0 Z " fill="#3CB367" transform="translate(684,275)"/>
<path d="M0 0 C7.26535114 5.23575912 13.24560572 11.44351368 15.609375 20.27734375 C17.41287309 32.84772547 16.54899789 45.44247728 9 56 C2.06646688 63.7566286 -7.34860524 69.44152316 -17.90234375 70.12280273 C-33.5863272 70.71238575 -45.87123113 68.88851146 -58.10546875 58.15234375 C-66.23081378 49.71515179 -67.71419513 39.87150691 -67.67944336 28.56665039 C-67.26915423 18.43698294 -63.64134482 10.08450284 -56.25 2.9375 C-40.8606034 -8.91203539 -16.40624648 -10.42279188 0 0 Z " fill="#F9F9F9" transform="translate(284,539)"/>
<path d="M0 0 C5.71901074 4.30766689 8.35635472 9.5392908 9.8203125 16.37109375 C10.75349263 23.65756872 9.42853309 31.06585784 5.6015625 37.3828125 C0.56687888 43.83000459 -6.67675376 47.64947128 -14.66796875 49.0859375 C-26.96902468 50.4824804 -36.65728786 48.89115043 -46.48828125 41.0859375 C-52.37970788 35.11287447 -53.5249467 27.33727236 -53.56469727 19.27954102 C-53.40482837 12.08198404 -51.31352573 6.869678 -46.53515625 1.53515625 C-33.66183876 -10.37920079 -13.88077686 -9.17219961 0 0 Z " fill="#F8F8F9" transform="translate(416.1796875,559.62890625)"/>
<path d="M0 0 C4.41333291 3.76747931 6.75396979 7.47359093 7.5625 13.1875 C7.64449733 15.98440256 7.67910269 18.75486006 7.66015625 21.55078125 C7.6587413 22.34276413 7.65732635 23.13474701 7.65586853 23.95072937 C7.65029457 26.46719219 7.63774693 28.98356431 7.625 31.5 C7.61998163 33.21158725 7.61541931 34.92317591 7.61132812 36.63476562 C7.60033368 40.81904508 7.58308707 45.00325719 7.5625 49.1875 C2.6125 49.1875 -2.3375 49.1875 -7.4375 49.1875 C-7.4375 48.5275 -7.4375 47.8675 -7.4375 47.1875 C-8.448125 47.661875 -9.45875 48.13625 -10.5 48.625 C-18.67022688 52.0891762 -28.38967105 52.56077273 -36.75 49.5625 C-41.95684334 47.27017903 -44.87477851 44.31294298 -47.4375 39.1875 C-48.15860477 34.77892764 -48.34816762 30.84502612 -46.15625 26.85546875 C-42.16714324 21.96881297 -38.46259585 19.86662507 -32.4375 18.1875 C-31.7971582 18.0026001 -31.15681641 17.8177002 -30.49707031 17.62719727 C-28.16671481 17.12969012 -26.05408751 17.07457316 -23.671875 17.08984375 C-22.78242187 17.09306641 -21.89296875 17.09628906 -20.9765625 17.09960938 C-20.05617188 17.10798828 -19.13578125 17.11636719 -18.1875 17.125 C-17.25164063 17.12951172 -16.31578125 17.13402344 -15.3515625 17.13867188 C-13.04680959 17.15043082 -10.74218773 17.16686574 -8.4375 17.1875 C-9.31053186 12.46542061 -9.31053186 12.46542061 -12.08203125 8.765625 C-15.43326729 7.9430994 -18.69751701 7.8929045 -22.125 7.9375 C-22.83527344 7.94136719 -23.54554688 7.94523438 -24.27734375 7.94921875 C-29.56439988 8.03604996 -34.33700969 8.73021705 -39.4375 10.1875 C-39.94365298 8.91910474 -40.44219099 7.64766898 -40.9375 6.375 C-41.2159375 5.66730469 -41.494375 4.95960938 -41.78125 4.23046875 C-42.4375 2.1875 -42.4375 2.1875 -42.4375 -0.8125 C-28.00803588 -5.34665967 -13.93384832 -7.3469382 0 0 Z " fill="#3CB164" transform="translate(650.4375,557.8125)"/>
<path d="M0 0 C5.28 0 10.56 0 16 0 C16.495 20.295 16.495 20.295 17 41 C19.536875 38.628125 22.07375 36.25625 24.6875 33.8125 C25.47729248 33.07491455 26.26708496 32.3373291 27.08081055 31.57739258 C27.71801025 30.98079834 28.35520996 30.3842041 29.01171875 29.76953125 C29.70998779 29.12540283 30.40825684 28.48127441 31.12768555 27.81762695 C33.18295636 25.89824486 33.18295636 25.89824486 35.375 23.03125 C39.43890919 19.88655837 43.33461521 20.45883391 48.3125 20.6875 C49.70952148 20.72133789 49.70952148 20.72133789 51.13476562 20.75585938 C53.4248396 20.81457922 55.71157875 20.89663142 58 21 C58 23 58 23 56.70703125 24.3046875 C56.08183594 24.82289063 55.45664062 25.34109375 54.8125 25.875 C50.84819705 29.24252617 47.00423343 32.71758787 43.1875 36.25 C42.62458252 36.76933105 42.06166504 37.28866211 41.48168945 37.82373047 C38.2931471 40.77327552 38.2931471 40.77327552 35.23828125 43.859375 C34 45 34 45 32 45 C32 45.66 32 46.32 32 47 C32.99 47.33 33.98 47.66 35 48 C36.578125 49.63671875 36.578125 49.63671875 38.25 51.6875 C41.07423233 55.02414579 44.00993977 57.85064925 47.37109375 60.6328125 C50.66076053 63.39392371 53.51726516 66.39313334 56.1875 69.75 C57.80309077 72.07487388 57.80309077 72.07487388 60 73 C60 73.66 60 74.32 60 75 C56.75047252 75.14546783 53.50178287 75.2341168 50.25 75.3125 C49.32960938 75.35439453 48.40921875 75.39628906 47.4609375 75.43945312 C40.58636572 75.56399247 40.58636572 75.56399247 37.54296875 72.63671875 C37.03378906 71.76660156 36.52460937 70.89648438 36 70 C34.01739574 68.31267723 32.0167658 66.64633943 30 65 C28.31126121 63.35570171 26.64694485 61.68615782 25 60 C22.36 57.36 19.72 54.72 17 52 C16.67 59.59 16.34 67.18 16 75 C10.72 75 5.44 75 0 75 C0 50.25 0 25.5 0 0 Z " fill="#3BAE61" transform="translate(732,533)"/>
<path d="M0 0 C5.94122473 5.51685153 10.81523093 10.07952635 11.625 18.4375 C11.7178125 19.36820313 11.810625 20.29890625 11.90625 21.2578125 C12.32474744 29.43943751 10.61883365 35.90000313 5.1328125 42.1328125 C2.19776604 44.79412406 -0.43766568 46.09008815 -4.375 46.4375 C-4.375 47.0975 -4.375 47.7575 -4.375 48.4375 C-14.51440836 49.1168152 -22.21637139 49.38313495 -30.375 42.4375 C-34.93731613 38.1091488 -36.94640955 32.32118885 -37.62890625 26.13671875 C-37.83277578 18.26735492 -36.36274518 11.67218148 -31.375 5.4375 C-22.91382518 -3.02367482 -11.03432532 -5.10848394 0 0 Z " fill="#2A2F34" transform="translate(271.375,547.5625)"/>
<path d="M0 0 C5.24883514 3.97244347 7.84942015 7.84534671 9.57421875 14.19140625 C9.93678507 17.23513921 9.92720296 20.22345051 9.8671875 23.28515625 C9.86294266 24.11728638 9.85869781 24.9494165 9.85432434 25.8067627 C9.83768182 28.43532218 9.80005851 31.06308292 9.76171875 33.69140625 C9.74665319 35.48566592 9.73296808 37.27993775 9.72070312 39.07421875 C9.68782589 43.44691708 9.63614597 47.81902678 9.57421875 52.19140625 C4.29421875 52.19140625 -0.98578125 52.19140625 -6.42578125 52.19140625 C-6.4515625 49.65066406 -6.47734375 47.10992188 -6.50390625 44.4921875 C-6.54235313 42.02308215 -6.58750464 39.55418377 -6.63330078 37.08520508 C-6.66147211 35.37339205 -6.68270577 33.66144988 -6.69677734 31.94946289 C-6.7182609 29.48386706 -6.76493541 27.01981764 -6.81640625 24.5546875 C-6.81763489 23.79303787 -6.81886353 23.03138824 -6.82012939 22.24665833 C-6.95552221 17.30042951 -7.81707633 14.61606886 -11.42578125 11.19140625 C-18.86334763 8.71221746 -23.06700906 10.43186668 -30.42578125 13.19140625 C-30.75578125 26.06140625 -31.08578125 38.93140625 -31.42578125 52.19140625 C-36.70578125 52.19140625 -41.98578125 52.19140625 -47.42578125 52.19140625 C-47.42578125 34.70140625 -47.42578125 17.21140625 -47.42578125 -0.80859375 C-42.80578125 -0.80859375 -38.18578125 -0.80859375 -33.42578125 -0.80859375 C-33.42578125 0.18140625 -33.42578125 1.17140625 -33.42578125 2.19140625 C-32.43578125 2.19140625 -31.44578125 2.19140625 -30.42578125 2.19140625 C-30.42578125 1.53140625 -30.42578125 0.87140625 -30.42578125 0.19140625 C-21.12473151 -3.72482522 -9.00455186 -5.60587068 0 0 Z " fill="#F8F8F9" transform="translate(483.42578125,555.80859375)"/>
<path d="M0 0 C23.1 0 46.2 0 70 0 C70 3.96 70 7.92 70 12 C61.09 12 52.18 12 43 12 C43 32.46 43 52.92 43 74 C37.39 74 31.78 74 26 74 C26 53.54 26 33.08 26 12 C17.42 12 8.84 12 0 12 C0 8.04 0 4.08 0 0 Z " fill="#3AB164" transform="translate(494,534)"/>
<path d="M0 0 C0.73476563 0.00273926 1.46953125 0.00547852 2.2265625 0.00830078 C8.25228871 0.12306396 14.12839832 0.82913081 19.6875 3.3125 C20.1825 4.3025 20.1825 4.3025 20.6875 5.3125 C19.91015625 7.4765625 19.91015625 7.4765625 18.75 9.9375 C18.36972656 10.75476563 17.98945313 11.57203125 17.59765625 12.4140625 C17.29730469 13.04054688 16.99695313 13.66703125 16.6875 14.3125 C16.15382813 14.168125 15.62015625 14.02375 15.0703125 13.875 C7.18787691 11.91120982 -0.32947653 11.63186348 -8.3125 13.3125 C-7.88669192 16.28516301 -7.88669192 16.28516301 -6.3125 19.3125 C-3.646053 20.51453675 -1.48244729 21.2615318 1.3125 21.9375 C2.77078813 22.34316483 4.22784618 22.75327945 5.68359375 23.16796875 C6.37952637 23.36181152 7.07545898 23.5556543 7.79248047 23.75537109 C14.27743902 25.66192552 19.17114192 28.48853193 22.6875 34.3125 C23.5052037 38.6919323 22.98942259 42.33125157 21.6875 46.5625 C17.94395344 51.70987652 12.37960133 54.76573738 6.1328125 56.02734375 C-4.096583 57.22022853 -14.97777998 57.20643088 -24.3125 52.3125 C-25.46429214 49.98024039 -25.47594437 48.87484008 -24.75390625 46.390625 C-23.94010417 44.69791667 -23.12630208 43.00520833 -22.3125 41.3125 C-21.17554688 41.63863281 -20.03859375 41.96476563 -18.8671875 42.30078125 C-14.33960278 43.43118087 -10.08370993 43.57743683 -5.4375 43.5 C-4.67953125 43.49935547 -3.9215625 43.49871094 -3.140625 43.49804688 C0.90486927 43.54515147 0.90486927 43.54515147 4.6875 42.3125 C4.6875 40.6625 4.6875 39.0125 4.6875 37.3125 C-0.30064984 35.2217223 -5.19660537 33.29655187 -10.4375 31.9375 C-16.39258666 30.20920987 -21.51062747 27.24054286 -24.8125 21.875 C-25.77014941 16.96704677 -26.01031074 13.63058696 -23.625 9.125 C-17.17223245 1.27703947 -9.71182632 -0.07377769 0 0 Z " fill="#F6F6F7" transform="translate(333.3125,552.6875)"/>
<path d="M0 0 C-0.99 3.63 -1.98 7.26 -3 11 C-6.46941546 10.54177532 -9.67395049 10.10868317 -13 9 C-15.1216468 8.85445167 -17.24856706 8.77919588 -19.375 8.75 C-20.49648438 8.72421875 -21.61796875 8.6984375 -22.7734375 8.671875 C-26.31200927 9.03172976 -28.08549348 10.04326418 -31 12 C-31.66 12 -32.32 12 -33 12 C-35.27311003 17.84514009 -36.72175864 22.71038902 -36 29 C-33.70118532 33.35132779 -31.10246912 36.98464647 -26.28125 38.5625 C-23.32863517 39.1287549 -20.50563307 39.17026587 -17.5 39.1875 C-16.3759375 39.20167969 -15.251875 39.21585938 -14.09375 39.23046875 C-11.06891599 39.20689068 -11.06891599 39.20689068 -8.90625 37.92578125 C-7 37 -7 37 -2 38 C-1.34 41.3 -0.68 44.6 0 48 C-12.41196551 52.32538192 -25.54475842 54.52416861 -38 49 C-44.78135243 45.37400872 -49.21265291 41.56550614 -52.078125 34.24609375 C-53.90659911 27.80769549 -54.32247969 19.49966794 -51.9375 13.125 C-47.30557922 5.65416003 -41.93435103 -0.23773177 -33.5 -3.25 C-21.97694893 -5.69095166 -10.97943045 -3.65981015 0 0 Z " fill="#3BB163" transform="translate(721,557)"/>
<path d="M0 0 C1.14662109 -0.00386719 1.14662109 -0.00386719 2.31640625 -0.0078125 C4.4375 0.125 4.4375 0.125 7.4375 1.125 C7.61585515 5.67305635 7.43535435 9.0044254 5.4375 13.125 C4.51130859 13.05539062 4.51130859 13.05539062 3.56640625 12.984375 C-3.00510059 12.70431078 -7.87448269 13.76612771 -13.5625 17.125 C-16.46747155 20.02997155 -15.9169517 23.07899306 -15.9765625 26.9765625 C-15.99592865 27.75059418 -16.0152948 28.52462585 -16.0352478 29.32211304 C-16.0950983 31.79796275 -16.14145011 34.27385883 -16.1875 36.75 C-16.22567482 38.42710377 -16.26472625 40.10418784 -16.3046875 41.78125 C-16.40245736 45.89573163 -16.48197991 50.0099996 -16.5625 54.125 C-21.8425 54.125 -27.1225 54.125 -32.5625 54.125 C-32.5625 36.965 -32.5625 19.805 -32.5625 2.125 C-27.6125 2.125 -22.6625 2.125 -17.5625 2.125 C-17.2325 3.115 -16.9025 4.105 -16.5625 5.125 C-16.03140625 4.84785156 -15.5003125 4.57070313 -14.953125 4.28515625 C-14.24671875 3.92292969 -13.5403125 3.56070313 -12.8125 3.1875 C-12.11640625 2.82785156 -11.4203125 2.46820312 -10.703125 2.09765625 C-7.09192942 0.45680278 -3.95201663 -0.013374 0 0 Z " fill="#3BB365" transform="translate(592.5625,552.875)"/>
<path d="M0 0 C3.68776472 1.25657168 6.313703 3.07527118 8.6640625 6.2421875 C11.09460732 11.25962798 10.61611385 16.55766101 10 22 C7.47779911 27.41806118 4.17371535 29.41314232 -1 32 C-5.61891196 32.56350726 -9.09841312 32.4422879 -13.3125 30.375 C-16.92924419 27.17880746 -19.6197191 24.58505556 -20.34765625 19.63671875 C-20.54367696 14.02029929 -19.82208413 9.86566229 -17 5 C-11.52054713 -0.07851729 -7.31003393 -0.78790785 0 0 Z " fill="#2B2F35" transform="translate(399,565)"/>
<path d="M0 0 C2.5625 1.6875 2.5625 1.6875 4.5625 4.6875 C5 8.0625 5 8.0625 4.5625 11.6875 C2.125 14.5625 2.125 14.5625 -0.4375 16.6875 C-0.7675 17.0175 -1.0975 17.3475 -1.4375 17.6875 C-6.48746836 18.28971088 -11.79298729 18.7803262 -16.125 15.75 C-18.81056802 12.19343695 -19.34048932 10.22395784 -19.01171875 5.84765625 C-18.24394574 2.95936732 -16.81299483 1.18045037 -14.34765625 -0.50390625 C-9.43209748 -2.58472561 -4.85511849 -1.85377251 0 0 Z " fill="#BEBEC1" transform="translate(487.4375,641.3125)"/>
<path d="M0 0 C1.65 0 3.3 0 5 0 C6.32 3.63 7.64 7.26 9 11 C10.65 7.37 12.3 3.74 14 0 C15.65 0 17.3 0 19 0 C20.32 3.63 21.64 7.26 23 11 C24.65 7.37 26.3 3.74 28 0 C29.32 0 30.64 0 32 0 C30.3186083 6.48707154 28.46937673 12.7677635 26 19 C24.35 19 22.7 19 21 19 C19.35 15.04 17.7 11.08 16 7 C14.68 10.96 13.36 14.92 12 19 C10.35 19 8.7 19 7 19 C5.82905995 16.2100561 4.66309073 13.41821403 3.5 10.625 C2.99919922 9.43390625 2.99919922 9.43390625 2.48828125 8.21875 C2.17246094 7.45820312 1.85664062 6.69765625 1.53125 5.9140625 C1.23798828 5.2123291 0.94472656 4.5105957 0.64257812 3.78759766 C0 2 0 2 0 0 Z " fill="#BCBDC1" transform="translate(562,640)"/>
<path d="M0 0 C0.69738281 0.00451172 1.39476562 0.00902344 2.11328125 0.01367188 C3.82555803 0.0253998 5.53779033 0.04333347 7.25 0.0625 C7.25 3.3625 7.25 6.6625 7.25 10.0625 C0.92462137 13.88159653 -4.35105854 15.22637843 -11.75 14.0625 C-14.4375 12.4375 -14.4375 12.4375 -15.75 10.0625 C-16.25 7 -16.25 7 -15.75 4.0625 C-11.35652427 -0.48788558 -5.95155543 -0.07312875 0 0 Z " fill="#283334" transform="translate(634.75,583.9375)"/>
<path d="M0 0 C2.206875 -0.061875 4.41375 -0.12375 6.6875 -0.1875 C8.54955078 -0.23970703 8.54955078 -0.23970703 10.44921875 -0.29296875 C14.22068797 0.01820858 16.08636031 0.61611298 19 3 C19.3125 6.1875 19.3125 6.1875 19 9 C17.02 9.99 17.02 9.99 15 11 C16.65 13.64 18.3 16.28 20 19 C17.8125 19.375 17.8125 19.375 15 19 C14.195625 18.030625 13.39125 17.06125 12.5625 16.0625 C10.27701987 12.73203359 10.27701987 12.73203359 6.6875 12.125 C5.800625 12.08375 4.91375 12.0425 4 12 C4 14.31 4 16.62 4 19 C2.68 19 1.36 19 0 19 C0 12.73 0 6.46 0 0 Z " fill="#BBBCC0" transform="translate(637,640)"/>
<path d="M0 0 C2.206875 -0.061875 4.41375 -0.12375 6.6875 -0.1875 C8.54955078 -0.23970703 8.54955078 -0.23970703 10.44921875 -0.29296875 C14.22068797 0.01820858 16.08636031 0.61611298 19 3 C19.3125 6.1875 19.3125 6.1875 19 9 C17.02 9.99 17.02 9.99 15 11 C16.65 13.64 18.3 16.28 20 19 C17.75 19.3125 17.75 19.3125 15 19 C11 14.89189189 11 14.89189189 11 12 C8.69 12 6.38 12 4 12 C4 14.31 4 16.62 4 19 C2.68 19 1.36 19 0 19 C0 12.73 0 6.46 0 0 Z " fill="#BCBDC1" transform="translate(353,640)"/>
<path d="M0 0 C1.65 0 3.3 0 5 0 C6.80078125 1.96875 6.80078125 1.96875 8.3125 4.5 C8.82425781 5.3353125 9.33601563 6.170625 9.86328125 7.03125 C10.23839844 7.6809375 10.61351562 8.330625 11 9 C15.09403838 7.63532054 15.61349506 5.41129698 17.5234375 1.71484375 C18.01070313 1.14894531 18.49796875 0.58304688 19 0 C20.65 0 22.3 0 24 0 C24 6.27 24 12.54 24 19 C22.68 19 21.36 19 20 19 C19.505 14.05 19.505 14.05 19 9 C17.35 11.31 15.7 13.62 14 16 C10 15 10 15 7.75 11.9375 C7.1725 10.968125 6.595 9.99875 6 9 C5.67 12.3 5.34 15.6 5 19 C3.35 19 1.7 19 0 19 C0 12.73 0 6.46 0 0 Z " fill="#B8B9BC" transform="translate(385,640)"/>
<path d="M0 0 C4.39513299 1.75554528 5.55548724 5.48364354 7.55078125 9.59375 C8.16083008 10.79064453 8.16083008 10.79064453 8.78320312 12.01171875 C11.73828125 17.86227679 11.73828125 17.86227679 11.73828125 19.09375 C10.08828125 19.09375 8.43828125 19.09375 6.73828125 19.09375 C6.40828125 17.77375 6.07828125 16.45375 5.73828125 15.09375 C-0.20171875 15.58875 -0.20171875 15.58875 -6.26171875 16.09375 C-6.59171875 17.08375 -6.92171875 18.07375 -7.26171875 19.09375 C-8.91171875 19.09375 -10.56171875 19.09375 -12.26171875 19.09375 C-10.72440776 14.98395378 -8.78863057 11.19978351 -6.69921875 7.34375 C-6.07917969 6.19390625 -5.45914063 5.0440625 -4.8203125 3.859375 C-2.70859853 0.11227351 -2.70859853 0.11227351 0 0 Z " fill="#B2B4B7" transform="translate(614.26171875,639.90625)"/>
<path d="M0 0 C5.94 0 11.88 0 18 0 C18 0.99 18 1.98 18 3 C13.38 3 8.76 3 4 3 C4 4.65 4 6.3 4 8 C7.96 8 11.92 8 16 8 C16 8.99 16 9.98 16 11 C12.04 11 8.08 11 4 11 C4 12.65 4 14.3 4 16 C8.62 16 13.24 16 18 16 C18 16.99 18 17.98 18 19 C12.06 19 6.12 19 0 19 C0 12.73 0 6.46 0 0 Z " fill="#B1B2B5" transform="translate(669,640)"/>
<path d="M0 0 C1.06347656 0.01546875 2.12695312 0.0309375 3.22265625 0.046875 C5.9375 0.25 5.9375 0.25 7.9375 1.25 C7.9375 2.24 7.9375 3.23 7.9375 4.25 C4.3075 4.25 0.6775 4.25 -3.0625 4.25 C-3.0625 5.24 -3.0625 6.23 -3.0625 7.25 C-2.29164063 7.37117187 -1.52078125 7.49234375 -0.7265625 7.6171875 C0.27632813 7.78476562 1.27921875 7.95234375 2.3125 8.125 C3.31023437 8.28742187 4.30796875 8.44984375 5.3359375 8.6171875 C7.9375 9.25 7.9375 9.25 9.9375 11.25 C10.3125 13.6875 10.3125 13.6875 9.9375 16.25 C7.72692937 18.40916201 6.36259668 19.19186178 3.28125 19.61328125 C2.3428125 19.59652344 1.404375 19.57976563 0.4375 19.5625 C-0.5009375 19.55863281 -1.439375 19.55476562 -2.40625 19.55078125 C-5.08337334 19.2476364 -6.76215635 18.61176004 -9.0625 17.25 C-9.0625 16.59 -9.0625 15.93 -9.0625 15.25 C-4.7725 15.25 -0.4825 15.25 3.9375 15.25 C4.2675 14.26 4.5975 13.27 4.9375 12.25 C4.34582031 12.21261719 3.75414062 12.17523437 3.14453125 12.13671875 C-5.56124864 11.41242059 -5.56124864 11.41242059 -9.0625 8.25 C-9.5625 5.75 -9.5625 5.75 -9.0625 3.25 C-6.56708351 -0.30279637 -4.1465643 -0.10076705 0 0 Z " fill="#C5C7C9" transform="translate(331.0625,639.75)"/>
<path d="M0 0 C0.76183594 -0.00515625 1.52367187 -0.0103125 2.30859375 -0.015625 C4.77693018 0.2752708 6.420186 1.02024344 8.5625 2.25 C8.5625 2.91 8.5625 3.57 8.5625 4.25 C4.6025 3.92 0.6425 3.59 -3.4375 3.25 C-3.1075 4.57 -2.7775 5.89 -2.4375 7.25 C-1.58285156 7.45496094 -0.72820312 7.65992188 0.15234375 7.87109375 C1.25707031 8.14050781 2.36179687 8.40992188 3.5 8.6875 C4.60214844 8.95433594 5.70429688 9.22117187 6.83984375 9.49609375 C9.5625 10.25 9.5625 10.25 10.5625 11.25 C10.9375 13.625 10.9375 13.625 10.5625 16.25 C6.84816734 19.1019556 4.00275488 19.65949258 -0.625 19.625 C-2.19314453 19.63660156 -2.19314453 19.63660156 -3.79296875 19.6484375 C-4.66566406 19.51695312 -5.53835938 19.38546875 -6.4375 19.25 C-7.0975 18.26 -7.7575 17.27 -8.4375 16.25 C-5.44269083 15.3776588 -2.80174089 15.14170234 0.3125 15.1875 C1.11171875 15.19652344 1.9109375 15.20554687 2.734375 15.21484375 C3.33765625 15.22644531 3.9409375 15.23804688 4.5625 15.25 C4.8925 14.26 5.2225 13.27 5.5625 12.25 C4.80324219 12.14042969 4.04398437 12.03085937 3.26171875 11.91796875 C2.26785156 11.75941406 1.27398437 11.60085938 0.25 11.4375 C-0.73613281 11.28667969 -1.72226562 11.13585937 -2.73828125 10.98046875 C-5.58352458 10.21048249 -6.73426327 9.62633716 -8.4375 7.25 C-8.3125 4.6875 -8.3125 4.6875 -7.4375 2.25 C-4.32763793 0.17675862 -3.54641613 -0.02392186 0 0 Z " fill="#C2C3C4" transform="translate(447.4375,639.75)"/>
<path d="M0 0 C5.94 0 11.88 0 18 0 C18 0.99 18 1.98 18 3 C13.71 3 9.42 3 5 3 C5 4.65 5 6.3 5 8 C8.63 8 12.26 8 16 8 C16 8.99 16 9.98 16 11 C12.37 11 8.74 11 5 11 C5 13.64 5 16.28 5 19 C3.35 19 1.7 19 0 19 C0 12.73 0 6.46 0 0 Z " fill="#BBBCC0" transform="translate(504,640)"/>
<path d="M0 0 C2.50041894 0.08168338 3.83455801 0.19140582 6.0625 1.375 C7.64683618 4.44465135 7.42498449 6.92931143 7.0625 10.3125 C6 12.25 6 12.25 4.0625 13.3125 C0.14244554 13.81141602 -2.05344538 13.86503414 -5.4375 11.75 C-6.9375 9.3125 -6.9375 9.3125 -6.8125 5.6875 C-5.56526038 0.87671861 -5.01226784 0.39779904 0 0 Z " fill="#2C2F34" transform="translate(479.9375,642.6875)"/>
<path d="M0 0 C1.65 0 3.3 0 5 0 C6.80078125 1.96875 6.80078125 1.96875 8.3125 4.5 C8.82425781 5.3353125 9.33601563 6.170625 9.86328125 7.03125 C10.23839844 7.6809375 10.61351562 8.330625 11 9 C10.01 9.99 9.02 10.98 8 12 C7.34 11.01 6.68 10.02 6 9 C5.67 12.3 5.34 15.6 5 19 C3.35 19 1.7 19 0 19 C0 12.73 0 6.46 0 0 Z " fill="#A6A7AA" transform="translate(385,640)"/>
<path d="M0 0 C6.6 0 13.2 0 20 0 C20 0.99 20 1.98 20 3 C17.36 3 14.72 3 12 3 C12 8.28 12 13.56 12 19 C10.68 19 9.36 19 8 19 C8 13.72 8 8.44 8 3 C5.36 3 2.72 3 0 3 C0 2.01 0 1.02 0 0 Z " fill="#C3C4C6" transform="translate(532,640)"/>
<path d="M0 0 C14.46428571 -0.26785714 14.46428571 -0.26785714 18 2 C17.67 2.66 17.34 3.32 17 4 C12.71 3.67 8.42 3.34 4 3 C4 5.31 4 7.62 4 10 C5.98 10 7.96 10 10 10 C10 10.33 10 10.66 10 11 C8.02 11 6.04 11 4 11 C4 13.64 4 16.28 4 19 C2.68 19 1.36 19 0 19 C0 12.73 0 6.46 0 0 Z " fill="#C7C8CA" transform="translate(637,640)"/>
<path d="M0 0 C4.62 0 9.24 0 14 0 C14 0.99 14 1.98 14 3 C10.7 3 7.4 3 4 3 C4 4.98 4 6.96 4 9 C5.65 9 7.3 9 9 9 C9.33 9.66 9.66 10.32 10 11 C8.02 11 6.04 11 4 11 C4 13.64 4 16.28 4 19 C2.68 19 1.36 19 0 19 C0 12.73 0 6.46 0 0 Z " fill="#C4C4C7" transform="translate(353,640)"/>
<path d="M0 0 C1.67542976 0.28604898 3.34385343 0.61781233 5 1 C4.67 2.65 4.34 4.3 4 6 C3.01 5.67 2.02 5.34 1 5 C-0.07525194 7.65228812 -1.09456151 10.28368454 -2 13 C0.64 13 3.28 13 6 13 C6 13.33 6 13.66 6 14 C2.7 14 -0.6 14 -4 14 C-4.33 15.65 -4.66 17.3 -5 19 C-6.65 19 -8.3 19 -10 19 C-8.46268901 14.89020378 -6.52691182 11.10603351 -4.4375 7.25 C-3.81746094 6.10015625 -3.19742188 4.9503125 -2.55859375 3.765625 C-1 1 -1 1 0 0 Z " fill="#BDBFC1" transform="translate(612,640)"/>
<path d="M0 0 C1.65 0 3.3 0 5 0 C5.41713515 1.43146378 5.8080497 2.87058886 6.1875 4.3125 C6.40792969 5.11300781 6.62835937 5.91351562 6.85546875 6.73828125 C7 9 7 9 5.55078125 10.79296875 C5.03902344 11.19128906 4.52726563 11.58960938 4 12 C3.34 10.35 2.68 8.7 2 7 C1.01 10.3 0.02 13.6 -1 17 C-1.33 16.01 -1.66 15.02 -2 14 C-2.99 13.67 -3.98 13.34 -5 13 C-3.35 8.71 -1.7 4.42 0 0 Z " fill="#B9BABC" transform="translate(576,640)"/>
<path d="M0 0 C4.875 2.75 4.875 2.75 6 5 C6.5824233 11.29017161 6.5824233 11.29017161 4 14.4375 C3.01 15.2109375 3.01 15.2109375 2 16 C0.68 15.34 -0.64 14.68 -2 14 C-1.34 13.34 -0.68 12.68 0 12 C0.31537716 7.66356399 0.44897847 5.67346771 -2 2 C-1.34 1.34 -0.68 0.68 0 0 Z " fill="#B9BABD" transform="translate(486,641)"/>
<path d="M0 0 C1.06347656 0.01546875 2.12695312 0.0309375 3.22265625 0.046875 C5.9375 0.25 5.9375 0.25 7.9375 1.25 C7.9375 2.24 7.9375 3.23 7.9375 4.25 C7.17824219 4.21519531 6.41898437 4.18039062 5.63671875 4.14453125 C4.64285156 4.11746094 3.64898437 4.09039063 2.625 4.0625 C1.63886719 4.02769531 0.65273438 3.99289062 -0.36328125 3.95703125 C-3.4977055 4.29723649 -4.07257775 4.933287 -6.0625 7.25 C-7.0525 7.58 -8.0425 7.91 -9.0625 8.25 C-9.42503021 3.77879407 -9.42503021 3.77879407 -7.9296875 1.59765625 C-5.26070732 -0.32869973 -3.2533141 -0.07905988 0 0 Z " fill="#AFB1B4" transform="translate(331.0625,639.75)"/>
<path d="M0 0 C3.3 0 6.6 0 10 0 C10.33 1.65 10.66 3.3 11 5 C8.59454362 6.20272819 7.05003047 6.10071472 4.375 6.0625 C3.14910156 6.04896484 3.14910156 6.04896484 1.8984375 6.03515625 C0.95871094 6.01775391 0.95871094 6.01775391 0 6 C0 4.02 0 2.04 0 0 Z " fill="#3F4247" transform="translate(357,643)"/>
<path d="M0 0 C3.3 0 6.6 0 10 0 C10.33 1.32 10.66 2.64 11 4 C9 6 9 6 6.8359375 6.1953125 C5.61777344 6.16050781 5.61777344 6.16050781 4.375 6.125 C3.55773437 6.10695313 2.74046875 6.08890625 1.8984375 6.0703125 C1.27195312 6.04710937 0.64546875 6.02390625 0 6 C0 4.02 0 2.04 0 0 Z " fill="#3B3D40" transform="translate(641,643)"/>
<path d="M0 0 C0.33 0 0.66 0 1 0 C1 1.65 1 3.3 1 5 C5.62 5 10.24 5 15 5 C15 5.99 15 6.98 15 8 C9.39 8 3.78 8 -2 8 C-2 3 -2 3 0 0 Z " fill="#C8C8CA" transform="translate(672,651)"/>
<path d="M0 0 C0.79148437 -0.01417969 1.58296875 -0.02835938 2.3984375 -0.04296875 C4.625 0.1875 4.625 0.1875 7.625 2.1875 C5.72098862 4.09151138 4.29074314 5.12270439 1.578125 5.38671875 C-0.40733273 5.3761578 -2.3919914 5.28665043 -4.375 5.1875 C-4.9375 3.25 -4.9375 3.25 -5.375 1.1875 C-3.79539731 -0.39210269 -2.17963184 0.01763456 0 0 Z " fill="#383B3F" transform="translate(332.375,642.8125)"/>
<path d="M0 0 C2 3 2 3 2 5 C-1.20962956 6.06987652 -3.68899262 6.20081156 -7.0625 6.25 C-8.65771484 6.28867187 -8.65771484 6.28867187 -10.28515625 6.328125 C-11.18105469 6.21984375 -12.07695312 6.1115625 -13 6 C-13.66 5.01 -14.32 4.02 -15 3 C-11.58860997 1.90348177 -8.79344419 2.05784527 -5.25 2.4375 C-4.26515625 2.53933594 -3.2803125 2.64117188 -2.265625 2.74609375 C-1.14414062 2.87177734 -1.14414062 2.87177734 0 3 C0 2.01 0 1.02 0 0 Z " fill="#C9C9CB" transform="translate(454,653)"/>
<path d="M0 0 C1.32 0 2.64 0 4 0 C4 0.99 4 1.98 4 3 C6.64 3 9.28 3 12 3 C12 3.33 12 3.66 12 4 C8.7 4 5.4 4 2 4 C1.67 5.65 1.34 7.3 1 9 C-0.65 9 -2.3 9 -4 9 C-2.80100302 5.9168649 -1.52299523 2.93720508 0 0 Z " fill="#C4C5C7" transform="translate(606,650)"/>
<path d="M0 0 C5.28 0 10.56 0 16 0 C16 0.66 16 1.32 16 2 C11.71 2 7.42 2 3 2 C3 3.65 3 5.3 3 7 C2.01 7 1.02 7 0 7 C0 4.69 0 2.38 0 0 Z " fill="#D0D1D3" transform="translate(670,641)"/>
<path d="M0 0 C5.61 0.33 11.22 0.66 17 1 C16.01 2.485 16.01 2.485 15 4 C12.5390625 4.36328125 12.5390625 4.36328125 9.625 4.3125 C8.66851562 4.30863281 7.71203125 4.30476562 6.7265625 4.30078125 C4.00907193 4.00100077 2.32988821 3.38578659 0 2 C0 1.34 0 0.68 0 0 Z " fill="#D2D3D7" transform="translate(322,655)"/>
<path d="M0 0 C2.39195025 4.78390049 3.11896079 6.81768585 3.0625 12.125 C3.05347656 13.22070312 3.04445313 14.31640625 3.03515625 15.4453125 C3.02355469 16.28835938 3.01195312 17.13140625 3 18 C2.01 18 1.02 18 0 18 C0 12.06 0 6.12 0 0 Z " fill="#C5C6CA" transform="translate(386,641)"/>
<path d="M0 0 C0.8353125 0.556875 0.8353125 0.556875 1.6875 1.125 C1.6875 2.775 1.6875 4.425 1.6875 6.125 C0.6975 6.62 0.6975 6.62 -0.3125 7.125 C-2.4375 6.1875 -2.4375 6.1875 -4.3125 5.125 C-3.9825 4.135 -3.6525 3.145 -3.3125 2.125 C-4.6325 1.795 -5.9525 1.465 -7.3125 1.125 C-2.88173077 -1.09038462 -2.88173077 -1.09038462 0 0 Z " fill="#B6B8BC" transform="translate(339.3125,649.875)"/>
<path d="M0 0 C3.63 0 7.26 0 11 0 C10.01 1.485 10.01 1.485 9 3 C6.8359375 3.29296875 6.8359375 3.29296875 4.375 3.1875 C3.55773437 3.16042969 2.74046875 3.13335938 1.8984375 3.10546875 C1.27195312 3.07066406 0.64546875 3.03585937 0 3 C0 2.01 0 1.02 0 0 Z " fill="#C9C9CB" transform="translate(477,656)"/>
<path d="M0 0 C1.32 0.33 2.64 0.66 4 1 C3.34 3.97 2.68 6.94 2 10 C1.67 9.01 1.34 8.02 1 7 C0.01 6.67 -0.98 6.34 -2 6 C-1.34 4.02 -0.68 2.04 0 0 Z " fill="#ABACB0" transform="translate(573,647)"/>
<path d="M0 0 C0.66 0 1.32 0 2 0 C2.66 2.31 3.32 4.62 4 7 C1.69 7 -0.62 7 -3 7 C-1.125 2.25 -1.125 2.25 0 0 Z " fill="#42464C" transform="translate(613,645)"/>
<path d="M0 0 C1.65 0.99 3.3 1.98 5 3 C4.67 3.99 4.34 4.98 4 6 C3.34 6 2.68 6 2 6 C2 7.65 2 9.3 2 11 C1.67 11 1.34 11 1 11 C-1 4.375 -1 4.375 -1 1 C-0.67 0.67 -0.34 0.34 0 0 Z " fill="#B2B2B4" transform="translate(486,641)"/>
<path d="M0 0 C1.32 0 2.64 0 4 0 C3.1875 3.4375 3.1875 3.4375 2 7 C1.01 7.33 0.02 7.66 -1 8 C-1.04241723 5.66705225 -1.04092937 3.33297433 -1 1 C-0.67 0.67 -0.34 0.34 0 0 Z " fill="#C3C4C7" transform="translate(590,640)"/>
<path d="M0 0 C0.66 0 1.32 0 2 0 C2.99 2.31 3.98 4.62 5 7 C3.35 7 1.7 7 0 7 C-1.125 2.25 -1.125 2.25 0 0 Z " fill="#B8BABF" transform="translate(621,652)"/>
<path d="M0 0 C3.96 0 7.92 0 12 0 C12 0.99 12 1.98 12 3 C8.04 2.67 4.08 2.34 0 2 C0 1.34 0 0.68 0 0 Z " fill="#C8CBCC" transform="translate(327,641)"/>
<path d="M0 0 C1.32 0.33 2.64 0.66 4 1 C3.34 2.65 2.68 4.3 2 6 C0.68 6 -0.64 6 -2 6 C-1.34 4.02 -0.68 2.04 0 0 Z " fill="#B8B8BA" transform="translate(609,644)"/>
<path d="M0 0 C1.65 0.33 3.3 0.66 5 1 C4.67 2.32 4.34 3.64 4 5 C1.03 5 -1.94 5 -5 5 C-5 4.67 -5 4.34 -5 4 C-3.02 3.67 -1.04 3.34 1 3 C0.67 2.01 0.34 1.02 0 0 Z " fill="#3D3F44" transform="translate(448,651)"/>
<path d="M0 0 C0.66 0.33 1.32 0.66 2 1 C2 2.65 2 4.3 2 6 C-1 6 -1 6 -4 5 C-3 2 -3 2 0 0 Z " fill="#A8A8A9" transform="translate(456,650)"/>
<path d="M0 0 C0.33 0.66 0.66 1.32 1 2 C1.99 1.67 2.98 1.34 4 1 C4.33 1.99 4.66 2.98 5 4 C4.67 4.66 4.34 5.32 4 6 C2.68 5.67 1.36 5.34 0 5 C-0.5625 3.0625 -0.5625 3.0625 -1 1 C-0.67 0.67 -0.34 0.34 0 0 Z " fill="#C6C6C9" transform="translate(395,650)"/>
<path d="M0 0 C0.66 0.99 1.32 1.98 2 3 C2.66 3 3.32 3 4 3 C3.34 4.98 2.68 6.96 2 9 C0.4375 7.875 0.4375 7.875 -1 6 C-0.6875 2.8125 -0.6875 2.8125 0 0 Z " fill="#B1B3B6" transform="translate(588,644)"/>
<path d="M0 0 C3.3 0 6.6 0 10 0 C9.01 1.485 9.01 1.485 8 3 C4.62537285 2.45276317 2.91765 1.9451 0 0 Z " fill="#C5C6C9" transform="translate(329,656)"/>
<path d="M0 0 C2.875 -0.125 2.875 -0.125 6 0 C6.66 0.66 7.32 1.32 8 2 C4.94736336 2.98120464 3.05263664 2.98120464 0 2 C0 1.34 0 0.68 0 0 Z " fill="#CDCCCC" transform="translate(478,640)"/>
</svg>
