<svg width="180" height="40" viewBox="0 0 180 40" fill="none" xmlns="http://www.w3.org/2000/svg">
  <rect x="1" y="1" width="38" height="38" rx="10" fill="url(#paint0_linear)"/>
  <path d="M12 20.4L18 26L28 14" stroke="white" stroke-width="3" stroke-linecap="round" stroke-linejoin="round"/>
  <path d="M52 28.5C47.6 28.5 44 24.9 44 20.5C44 16.1 47.6 12.5 52 12.5C56.4 12.5 60 16.1 60 20.5C60 24.9 56.4 28.5 52 28.5Z" stroke="#0B0F14" stroke-width="2"/>
  <path d="M66 28V13.5H75.6C79.1 13.5 81 15.4 81 18.3C81 21.1 79.1 22.9 75.6 22.9H69.5V28H66Z" fill="#0B0F14"/>
  <path d="M88.1 28V13.5H91.7L100.7 23.4V13.5H104V28H100.5L91.4 18V28H88.1Z" fill="#0B0F14"/>
  <path d="M110.4 28V13.5H114.1V28H110.4Z" fill="#0B0F14"/>
  <path d="M120.5 28V13.5H124.2V22.9L132.2 13.5H136.7L128.2 22.6L137.4 28H132.3L124.2 23.1V28H120.5Z" fill="#0B0F14"/>
  <path d="M146.1 28V16.3H141.7V13.5H154.1V16.3H149.7V28H146.1Z" fill="#0B0F14"/>
  <defs>
    <linearGradient id="paint0_linear" x1="1" y1="1" x2="39" y2="39" gradientUnits="userSpaceOnUse">
      <stop stop-color="#20D78B"/>
      <stop offset="1" stop-color="#0AA66A"/>
    </linearGradient>
  </defs>
</svg>
